<svg width="34" height="24" viewBox="0 0 34 24" fill="none" xmlns="http://www.w3.org/2000/svg">
<path d="M26.5625 13.3337H7.4375C6.8425 13.3337 6.375 12.747 6.375 12.0003C6.375 11.2537 6.8425 10.667 7.4375 10.667H26.5625C27.1575 10.667 27.625 11.2537 27.625 12.0003C27.625 12.747 27.1575 13.3337 26.5625 13.3337Z" fill="#4B4B4B"/>
<path d="M21.25 22.6669C21.1107 22.6691 20.9725 22.6346 20.8444 22.5657C20.7163 22.4968 20.6011 22.395 20.5063 22.2669C20.0813 21.7336 20.0813 20.9069 20.5063 20.3736L27.2 11.9736L20.5063 3.57361C20.0813 3.04027 20.0813 2.21361 20.5063 1.68027C20.9313 1.14694 21.59 1.14694 22.015 1.68027L29.4525 11.0136C29.8775 11.5469 29.8775 12.3736 29.4525 12.9069L22.015 22.2403C21.8025 22.5069 21.5263 22.6403 21.2713 22.6403L21.25 22.6669Z" fill="#4B4B4B"/>
</svg>
