<svg width="53" height="53" viewBox="0 0 53 53" fill="none" xmlns="http://www.w3.org/2000/svg">
<path d="M26.5 37.1664L18.401 40.6504C17.2339 41.153 16.1253 41.0591 15.0752 40.3687C14.0251 39.6826 13.5 38.709 13.5 37.448V12.6679C13.5 11.6697 13.8344 10.837 14.5032 10.1697C15.1719 9.50235 16.0047 9.16796 17.0013 9.16652H27.5833C27.891 9.16652 28.1481 9.27052 28.3547 9.47852C28.5612 9.68652 28.6652 9.94435 28.6667 10.252C28.6681 10.5597 28.5641 10.8168 28.3547 11.0234C28.1452 11.2299 27.8881 11.3332 27.5833 11.3332H17.0013C16.6677 11.3332 16.3614 11.4719 16.0827 11.7492C15.8039 12.0265 15.6652 12.3327 15.6667 12.6679V37.3505C15.6667 37.8228 15.8682 38.1977 16.2712 38.475C16.6742 38.7523 17.0974 38.7935 17.5408 38.5985L26.5 34.7332L35.4592 38.6007C35.9026 38.7942 36.3258 38.7523 36.7288 38.475C37.1318 38.1977 37.3333 37.8221 37.3333 37.3483V25.4165C37.3333 25.1089 37.4373 24.8517 37.6453 24.6452C37.8533 24.4386 38.1112 24.3346 38.4188 24.3332C38.7265 24.3317 38.9836 24.4357 39.1902 24.6452C39.3967 24.8546 39.5 25.1117 39.5 25.4165V37.4459C39.5 38.7069 38.9749 39.6819 37.9248 40.3708C36.8747 41.0599 35.7661 41.153 34.599 40.6504L26.5 37.1664ZM26.5 11.3332H15.6667H28.6667H26.5ZM37.3333 15.6665H34.0833C33.7757 15.6665 33.5186 15.5625 33.312 15.3545C33.1054 15.1465 33.0014 14.8887 33 14.581C32.9986 14.2734 33.1026 14.0162 33.312 13.8097C33.5214 13.6031 33.7786 13.4999 34.0833 13.4999H37.3333V10.2499C37.3333 9.94219 37.4373 9.68507 37.6453 9.47852C37.8533 9.27196 38.1112 9.16796 38.4188 9.16652C38.7265 9.16507 38.9836 9.26907 39.1902 9.47852C39.3967 9.68796 39.5 9.94507 39.5 10.2499V13.4999H42.75C43.0577 13.4999 43.3148 13.6039 43.5213 13.8119C43.7279 14.0199 43.8319 14.2777 43.8333 14.5854C43.8348 14.893 43.7308 15.1501 43.5213 15.3567C43.3119 15.5632 43.0548 15.6665 42.75 15.6665H39.5V18.9165C39.5 19.2242 39.396 19.4813 39.188 19.6879C38.98 19.8944 38.7222 19.9984 38.4145 19.9999C38.1068 20.0013 37.8497 19.8973 37.6432 19.6879C37.4366 19.4784 37.3333 19.2213 37.3333 18.9165V15.6665Z" fill="#F0F5ED"/>
</svg>
